<svg width="460" height="201" viewBox="0 0 460 201" fill="none" xmlns="http://www.w3.org/2000/svg">
<path d="M23.125 74.1958V111.321H78V74.1958H93.5V167.696H78V126.696H7.75V74.1958H23.125Z" fill="#FB7712"/>
<path d="M146.205 116.678C150.752 134.068 162.022 148.939 177.534 158.02C193.046 167.101 211.531 169.648 228.921 165.101C246.311 160.553 261.182 149.284 270.263 133.772C279.344 118.26 281.891 99.7754 277.344 82.3853L211.774 99.5316L146.205 116.678Z" fill="#643007"/>
<path d="M275.707 141.458C281.649 143.777 288.269 143.641 294.111 141.079C299.953 138.517 304.538 133.74 306.857 127.798C309.176 121.856 309.04 115.236 306.478 109.394C303.916 103.552 299.139 98.9676 293.197 96.6483L284.452 119.053L275.707 141.458Z" fill="#643007"/>
<path d="M302.14 187.737C302.14 194.618 266.739 200.196 223.07 200.196C179.401 200.196 144 194.618 144 187.737C144 180.857 179.401 175.279 223.07 175.279C266.739 175.279 302.14 180.857 302.14 187.737Z" fill="#643007"/>
<path d="M201.08 48.3823C188.968 35.9471 179.549 17.9699 209.615 0.195801C189.017 12.4882 201.08 29.7468 209.615 39.8968C219.353 51.4767 225.654 66.27 198.176 85.2569C196.946 86.2995 195.606 87.193 194.167 87.9034C195.576 87.0123 196.912 86.1301 198.176 85.2569C208.162 76.7921 210.926 58.4907 201.08 48.3823Z" fill="#643007"/>
<path d="M235.709 53.7372C228.193 45.8034 222.348 34.3337 241.005 22.9937C228.223 30.8363 235.709 41.8475 241.005 48.3234C247.047 55.7115 250.957 65.1498 233.906 77.2636C233.143 77.9289 232.312 78.4989 231.419 78.9522C232.294 78.3837 233.122 77.8208 233.906 77.2636C240.103 71.863 241.818 60.1865 235.709 53.7372Z" fill="#643007"/>
<path d="M170.845 71.3539C162.888 63.4201 156.699 51.9504 176.453 40.6104C162.92 48.453 170.845 59.4642 176.453 65.9401C182.851 73.3282 186.991 82.7665 168.937 94.8803C168.129 95.5456 167.249 96.1156 166.303 96.5689C167.229 96.0004 168.107 95.4375 168.937 94.8803C175.498 89.4797 177.314 77.8032 170.845 71.3539Z" fill="#643007"/>
<path d="M378.727 74.1958V111.321H433.602V74.1958H449.102V167.696H433.602V126.696H363.352V74.1958H378.727Z" fill="#FB7712"/>
</svg>
