<svg width="117" height="40" viewBox="0 0 117 40" fill="none" xmlns="http://www.w3.org/2000/svg">
<path d="M0.440926 23.2964C1.35042 26.7744 3.6043 29.7486 6.70674 31.5648C9.80917 33.3811 13.506 33.8905 16.984 32.981C20.4621 32.0715 23.4363 29.8176 25.2525 26.7151C27.0687 23.6127 27.5781 19.9159 26.6686 16.4378L13.5548 19.8671L0.440926 23.2964Z" fill="white"/>
<path d="M26.3413 28.2523C27.5298 28.7162 28.8538 28.689 30.0221 28.1766C31.1904 27.6643 32.1074 26.7088 32.5712 25.5204C33.0351 24.3319 33.0078 23.0079 32.4955 21.8396C31.9832 20.6713 31.0277 19.7543 29.8393 19.2905L28.0903 23.7714L26.3413 28.2523Z" fill="white"/>
<path d="M31.6279 37.5083C31.6279 38.8844 24.5478 40 15.814 40C7.08015 40 0 38.8844 0 37.5083C0 36.1322 7.08015 35.0166 15.814 35.0166C24.5478 35.0166 31.6279 36.1322 31.6279 37.5083Z" fill="white"/>
<path d="M11.4159 9.63731C8.99352 7.15026 7.10968 3.55482 13.123 0C9.00337 2.45847 11.4159 5.91019 13.123 7.9402C15.0705 10.2562 16.3307 13.2148 10.835 17.0122C10.589 17.2207 10.3211 17.3994 10.0333 17.5415C10.3152 17.3633 10.5823 17.1869 10.835 17.0122C12.8323 15.3193 13.385 11.659 11.4159 9.63731Z" fill="white"/>
<path d="M18.3416 10.7083C16.8385 9.12152 15.6695 6.82759 19.4008 4.55957C16.8446 6.12811 18.3416 8.33035 19.4008 9.62552C20.6093 11.1031 21.3913 12.9908 17.9812 15.4136C17.8285 15.5466 17.6622 15.6606 17.4836 15.7513C17.6586 15.6376 17.8243 15.525 17.9812 15.4136C19.2205 14.3334 19.5634 11.9981 18.3416 10.7083Z" fill="white"/>
<path d="M5.36891 14.2316C3.77736 12.6449 2.53965 10.3509 6.49047 8.08292C3.78383 9.65145 5.36891 11.8537 6.49047 13.1489C7.77002 14.6265 8.59803 16.5141 4.98727 18.9369C4.82564 19.07 4.6496 19.184 4.46049 19.2746C4.64573 19.1609 4.8212 19.0483 4.98727 18.9369C6.29948 17.8568 6.66264 15.5215 5.36891 14.2316Z" fill="white"/>
<path d="M114.936 24.1095C115.169 24.1095 115.399 24.1289 115.625 24.1678C115.858 24.2066 116.066 24.2649 116.247 24.3426C116.428 24.4203 116.574 24.5207 116.684 24.6438C116.801 24.7668 116.859 24.9126 116.859 25.081V26.4994C116.859 26.6548 116.801 26.7876 116.684 26.8977C116.574 27.0078 116.428 27.0985 116.247 27.1697C116.066 27.2409 115.858 27.2928 115.625 27.3251C115.399 27.3575 115.169 27.3737 114.936 27.3737C114.702 27.3737 114.472 27.3575 114.246 27.3251C114.019 27.2928 113.815 27.2409 113.634 27.1697C113.452 27.0985 113.307 27.0078 113.197 26.8977C113.086 26.7876 113.031 26.6548 113.031 26.4994V25.081C113.031 24.9126 113.086 24.7668 113.197 24.6438C113.307 24.5207 113.452 24.4203 113.634 24.3426C113.815 24.2649 114.019 24.2066 114.246 24.1678C114.472 24.1289 114.702 24.1095 114.936 24.1095Z" fill="white"/>
<path d="M103.122 16.2986C103.452 16.2986 103.851 16.3148 104.317 16.3472C104.783 16.3795 105.266 16.4378 105.765 16.522C106.27 16.5997 106.768 16.7131 107.261 16.8621C107.753 17.0045 108.193 17.1891 108.582 17.4158C108.977 17.6425 109.294 17.9178 109.534 18.2416C109.78 18.5589 109.903 18.9346 109.903 19.3685V22.6522H98.7698V25.1393C99.5534 25.2494 100.308 25.3271 101.033 25.3724C101.759 25.4113 102.455 25.4307 103.122 25.4307C104.139 25.4307 105.059 25.3918 105.881 25.3141C106.71 25.2364 107.426 25.149 108.028 25.0518C108.721 24.9417 109.346 24.8154 109.903 24.6729V26.8297C108.673 27.024 107.484 27.1632 106.338 27.2474C105.198 27.3316 104.126 27.3737 103.122 27.3737C102.112 27.3737 101.195 27.3478 100.373 27.296C99.5502 27.2377 98.8442 27.1729 98.2549 27.1017C97.5683 27.024 96.9498 26.9333 96.3993 26.8297V19.3685C96.3993 18.9346 96.5062 18.5589 96.7199 18.2416C96.9336 17.9178 97.2186 17.6425 97.5748 17.4158C97.931 17.1891 98.3391 17.0045 98.7989 16.8621C99.2652 16.7131 99.7477 16.5997 100.246 16.522C100.745 16.4378 101.241 16.3795 101.733 16.3472C102.232 16.3148 102.695 16.2986 103.122 16.2986ZM98.7698 21.0978H107.494V19.9709C107.494 19.7053 107.429 19.4786 107.3 19.2908C107.17 19.0965 106.995 18.9346 106.775 18.8051C106.561 18.6755 106.309 18.5719 106.017 18.4942C105.732 18.41 105.434 18.3485 105.123 18.3096C104.813 18.2643 104.498 18.2351 104.181 18.2222C103.87 18.2092 103.575 18.2027 103.297 18.2027C103.006 18.2027 102.691 18.2092 102.355 18.2222C102.024 18.2351 101.691 18.2643 101.354 18.3096C101.017 18.3549 100.693 18.4197 100.382 18.5039C100.072 18.5816 99.7963 18.6885 99.5567 18.8245C99.317 18.954 99.126 19.1159 98.9835 19.3102C98.841 19.4981 98.7698 19.7247 98.7698 19.9903V21.0978Z" fill="white"/>
<path d="M85.3435 12.5292C85.9912 12.5292 86.6518 12.5616 87.3254 12.6263C88.0055 12.6846 88.6661 12.7915 89.3073 12.9469C89.9485 13.0959 90.5508 13.3064 91.1143 13.5784C91.6777 13.8439 92.17 14.184 92.5909 14.5985C93.0184 15.0065 93.3552 15.4987 93.6013 16.0752C93.8474 16.6451 93.9705 17.3154 93.9705 18.0862C93.9705 19.1483 93.7794 20.0454 93.3973 20.7772C93.0152 21.5026 92.4938 22.0888 91.8332 22.5357C92.1117 22.9631 92.3513 23.41 92.5521 23.8763C92.7529 24.3426 92.9148 24.796 93.0378 25.2364C93.1674 25.6704 93.2613 26.0752 93.3196 26.4508C93.3779 26.8265 93.407 27.1406 93.407 27.3932H90.92C90.92 26.9981 90.8876 26.6257 90.8228 26.2759C90.758 25.9197 90.6674 25.5829 90.5508 25.2656C90.4342 24.9417 90.2982 24.6373 90.1428 24.3524C89.9938 24.0674 89.8319 23.7921 89.657 23.5266C89.0417 23.7015 88.3908 23.8278 87.7043 23.9055C87.0178 23.9767 86.3021 24.0123 85.5573 24.0123C85.1104 24.0123 84.657 23.9994 84.1972 23.9735C83.7373 23.9476 83.284 23.9152 82.8371 23.8763V27.3543H80.4277V13.0926C80.5702 13.0473 80.7969 12.9923 81.1078 12.9275C81.4251 12.8627 81.7976 12.8012 82.225 12.7429C82.659 12.6846 83.1415 12.636 83.6726 12.5972C84.2036 12.5518 84.7606 12.5292 85.3435 12.5292ZM86.043 14.6665C85.6156 14.6665 85.2075 14.6859 84.8189 14.7248C84.4303 14.7572 84.0903 14.796 83.7988 14.8414C83.4491 14.8932 83.1285 14.9515 82.8371 15.0162V21.6613C83.0443 21.7066 83.2742 21.7455 83.5268 21.7779C83.7406 21.8103 83.9899 21.8394 84.2749 21.8653C84.5599 21.8847 84.8643 21.8945 85.1881 21.8945C85.6091 21.8945 86.0527 21.8847 86.5191 21.8653C86.9919 21.8394 87.4582 21.7844 87.918 21.7002C88.3843 21.616 88.8248 21.4929 89.2393 21.331C89.6602 21.1626 90.0294 20.9424 90.3468 20.6704C90.6706 20.3919 90.9264 20.0486 91.1143 19.6406C91.3086 19.2325 91.4057 18.7403 91.4057 18.1639C91.4057 17.6846 91.328 17.2636 91.1726 16.9009C91.0171 16.5382 90.8066 16.2274 90.5411 15.9683C90.2755 15.7092 89.9647 15.4955 89.6084 15.3271C89.2587 15.1587 88.883 15.0259 88.4815 14.9288C88.0864 14.8316 87.6784 14.7636 87.2574 14.7248C86.8429 14.6859 86.4381 14.6665 86.043 14.6665Z" fill="white"/>
<path d="M74.657 23.41C74.4951 23.2675 74.2943 23.1282 74.0547 22.9922C73.815 22.8562 73.5204 22.7364 73.1706 22.6328C72.8209 22.5227 72.4031 22.4352 71.9174 22.3705C71.4381 22.2992 70.8746 22.2636 70.227 22.2636C69.6505 22.2636 69.1033 22.2766 68.5851 22.3025C68.0735 22.3219 67.6233 22.3867 67.2347 22.4968C66.8461 22.6004 66.5385 22.7688 66.3118 23.002C66.0851 23.2351 65.9718 23.5589 65.9718 23.9735V25.217C66.5417 25.3077 67.17 25.3821 67.8565 25.4404C68.543 25.4987 69.3073 25.5279 70.1492 25.5279C70.8228 25.5279 71.5385 25.5052 72.2963 25.4599C73.0605 25.408 73.8474 25.3077 74.657 25.1587V23.41ZM70.2853 16.2986C70.6091 16.2986 71.0009 16.3148 71.4608 16.3472C71.9206 16.3795 72.3999 16.4378 72.8986 16.522C73.3973 16.5997 73.8895 16.7099 74.3753 16.8523C74.8675 16.9884 75.3079 17.1697 75.6965 17.3964C76.0916 17.6166 76.409 17.8821 76.6486 18.193C76.8882 18.5039 77.0081 18.8698 77.0081 19.2908V26.8102C76.464 26.9203 75.8487 27.0143 75.1622 27.092C74.5728 27.1632 73.8701 27.228 73.054 27.2863C72.238 27.3446 71.328 27.3737 70.3241 27.3737C69.3267 27.3737 68.2645 27.3316 67.1376 27.2474C66.0171 27.1632 64.8448 27.0175 63.6207 26.8102V23.3128C63.6207 22.9372 63.7082 22.6101 63.8831 22.3316C64.0644 22.0466 64.3105 21.8038 64.6214 21.603C64.9323 21.4022 65.2982 21.2371 65.7192 21.1075C66.1402 20.978 66.5935 20.8744 67.0793 20.7966C67.565 20.7189 68.0702 20.6671 68.5948 20.6412C69.1195 20.6088 69.6441 20.5926 70.1687 20.5926C70.9653 20.5926 71.6421 20.6444 72.1991 20.7481C72.7626 20.8452 73.2289 20.9521 73.5981 21.0687C74.0255 21.2111 74.3785 21.3698 74.657 21.5447V19.9709C74.657 19.7053 74.5923 19.4786 74.4627 19.2908C74.3332 19.0965 74.1583 18.9346 73.9381 18.8051C73.7179 18.6691 73.4653 18.5622 73.1803 18.4845C72.8954 18.4003 72.5974 18.3355 72.2866 18.2902C71.9757 18.2448 71.6583 18.2157 71.3345 18.2027C71.0171 18.1898 70.7192 18.1833 70.4407 18.1833C70.1492 18.1833 69.8384 18.193 69.5081 18.2124C69.1777 18.2254 68.8474 18.2545 68.5171 18.2999C68.1933 18.3452 67.8792 18.41 67.5748 18.4942C67.2768 18.5719 67.0113 18.6788 66.7781 18.8148C66.545 18.9508 66.3571 19.1159 66.2147 19.3102C66.0786 19.4981 66.0106 19.7247 66.0106 19.9903L63.6013 19.3685C63.6013 18.9346 63.7082 18.5589 63.9219 18.2416C64.1356 17.9178 64.4174 17.6425 64.7671 17.4158C65.1233 17.1891 65.5314 17.0045 65.9912 16.8621C66.4511 16.7131 66.9271 16.5997 67.4193 16.522C67.918 16.4378 68.4135 16.3795 68.9057 16.3472C69.398 16.3148 69.8578 16.2986 70.2853 16.2986Z" fill="white"/>
<path d="M53.9446 12.3154C54.9226 12.3154 55.8488 12.4029 56.7231 12.5777C57.5975 12.7461 58.3585 12.9858 59.0061 13.2966C59.6603 13.6075 60.1784 13.9799 60.5605 14.4139C60.9427 14.8413 61.1337 15.3141 61.1337 15.8323V17.5421H58.569V16.59C58.569 16.3115 58.4621 16.046 58.2484 15.7934C58.0346 15.5343 57.727 15.3109 57.3254 15.1231C56.9304 14.9288 56.4479 14.7766 55.8779 14.6665C55.308 14.5499 54.6635 14.4916 53.9446 14.4916C53.2516 14.4916 52.6201 14.5466 52.0502 14.6568C51.4802 14.7604 50.9912 14.9061 50.5832 15.0939C50.1752 15.2818 49.8578 15.5052 49.6311 15.7643C49.4109 16.0169 49.3008 16.2921 49.3008 16.59V23.4488C49.3008 23.7338 49.4109 24.0026 49.6311 24.2552C49.8578 24.5078 50.1752 24.728 50.5832 24.9158C50.9912 25.0972 51.4802 25.2429 52.0502 25.353C52.6201 25.4566 53.2516 25.5084 53.9446 25.5084C54.6635 25.5084 55.308 25.4534 55.8779 25.3433C56.4479 25.2267 56.9304 25.0745 57.3254 24.8867C57.727 24.6988 58.0346 24.4819 58.2484 24.2358C58.4621 23.9832 58.569 23.7209 58.569 23.4488V22.4773H61.1337V24.1872C61.1337 24.5305 61.0463 24.8575 60.8714 25.1684C60.6966 25.4728 60.4504 25.7545 60.1331 26.0136C59.8222 26.2727 59.4466 26.5058 59.0061 26.7131C58.5722 26.9139 58.0865 27.0887 57.5489 27.2377C57.0178 27.3802 56.4479 27.4903 55.839 27.568C55.2302 27.6457 54.5988 27.6846 53.9446 27.6846C53.2905 27.6846 52.659 27.6457 52.0502 27.568C51.4414 27.4903 50.8682 27.3802 50.3306 27.2377C49.7995 27.0887 49.3138 26.9139 48.8734 26.7131C48.4394 26.5058 48.0638 26.2727 47.7464 26.0136C47.4355 25.7545 47.1927 25.4728 47.0178 25.1684C46.8429 24.8575 46.7555 24.5305 46.7555 24.1872V15.8323C46.7555 15.489 46.8429 15.1619 47.0178 14.8511C47.1927 14.5402 47.4355 14.2552 47.7464 13.9961C48.0638 13.7371 48.4394 13.5039 48.8734 13.2966C49.3138 13.0894 49.7995 12.9145 50.3306 12.772C50.8682 12.6231 51.4414 12.5097 52.0502 12.432C52.659 12.3543 53.2905 12.3154 53.9446 12.3154Z" fill="white"/>
</svg>
