<svg width="178" height="207" viewBox="0 0 178 207" fill="none" xmlns="http://www.w3.org/2000/svg">
<path d="M31.5358 73.6577C34.6618 84.6543 42.4084 94.0582 53.0716 99.8006C63.7348 105.543 76.4411 107.154 88.3951 104.278C100.349 101.402 110.572 94.2762 116.814 84.4671C123.057 74.658 124.807 62.9694 121.681 51.9728L76.6086 62.8153L31.5358 73.6577Z" fill="#FB7712"/>
<path d="M120.556 89.3269C124.641 90.7935 129.192 90.7074 133.207 89.0875C137.223 87.4676 140.374 84.4466 141.969 80.6891C143.563 76.9316 143.469 72.7454 141.708 69.0515C139.947 65.3575 136.663 62.4583 132.579 60.9917L126.568 75.1593L120.556 89.3269Z" fill="#FB7712"/>
<path d="M138.726 118.592C138.726 122.943 114.392 126.47 84.3732 126.47C54.3547 126.47 30.02 122.943 30.02 118.592C30.02 114.241 54.3547 110.714 84.3732 110.714C114.392 110.714 138.726 114.241 138.726 118.592Z" fill="#97470B"/>
<path d="M69.2569 30.4708C60.9311 22.6073 54.4562 11.2394 75.1241 0C60.9649 7.77307 69.2569 18.6866 75.1241 25.1049C81.8179 32.4275 86.1494 41.782 67.2605 53.7884C66.4149 54.4477 65.494 55.0127 64.5047 55.4619C65.4738 54.8984 66.3917 54.3406 67.2605 53.7884C74.125 48.4356 76.0248 36.8628 69.2569 30.4708Z" fill="#FDC9A0"/>
<path d="M93.0609 33.8567C87.8946 28.8398 83.8769 21.5869 96.7016 14.416C87.9156 19.3753 93.0609 26.3383 96.7016 30.4333C100.855 35.1051 103.543 41.0735 91.8221 48.7336C91.2974 49.1543 90.726 49.5148 90.1121 49.8014C90.7134 49.4419 91.283 49.086 91.8221 48.7336C96.0816 45.3186 97.2605 37.9349 93.0609 33.8567Z" fill="#FDC9A0"/>
<path d="M48.4732 44.9974C43.003 39.9804 38.7489 32.7275 52.328 25.5566C43.0252 30.516 48.4732 37.4789 52.328 41.5739C56.7259 46.2458 59.5718 52.2141 47.1615 59.8743C46.6059 60.2949 46.0009 60.6554 45.3509 60.942C45.9876 60.5825 46.5907 60.2266 47.1615 59.8743C51.6716 56.4592 52.9198 49.0755 48.4732 44.9974Z" fill="#FDC9A0"/>
<path d="M171.339 196.743C171.922 196.743 172.496 196.792 173.063 196.889C173.646 196.986 174.164 197.132 174.618 197.326C175.071 197.52 175.435 197.771 175.71 198.079C176.002 198.387 176.148 198.751 176.148 199.172V202.718C176.148 203.107 176.002 203.438 175.71 203.714C175.435 203.989 175.071 204.216 174.618 204.394C174.164 204.572 173.646 204.701 173.063 204.782C172.496 204.863 171.922 204.904 171.339 204.904C170.756 204.904 170.181 204.863 169.614 204.782C169.048 204.701 168.538 204.572 168.084 204.394C167.631 204.216 167.267 203.989 166.991 203.714C166.716 203.438 166.578 203.107 166.578 202.718V199.172C166.578 198.751 166.716 198.387 166.991 198.079C167.267 197.771 167.631 197.52 168.084 197.326C168.538 197.132 169.048 196.986 169.614 196.889C170.181 196.792 170.756 196.743 171.339 196.743Z" fill="#97470B"/>
<path d="M141.805 177.216C142.631 177.216 143.627 177.256 144.792 177.337C145.958 177.418 147.165 177.564 148.411 177.774C149.674 177.969 150.921 178.252 152.152 178.624C153.382 178.981 154.483 179.442 155.455 180.009C156.442 180.576 157.236 181.264 157.835 182.073C158.45 182.867 158.758 183.806 158.758 184.891V193.1H130.924V199.318C132.883 199.593 134.77 199.787 136.583 199.9C138.397 199.998 140.137 200.046 141.805 200.046C144.347 200.046 146.646 199.949 148.703 199.755C150.775 199.56 152.564 199.342 154.07 199.099C155.803 198.824 157.365 198.508 158.758 198.152V203.544C155.681 204.029 152.71 204.377 149.844 204.588C146.994 204.798 144.315 204.904 141.805 204.904C139.279 204.904 136.988 204.839 134.932 204.709C132.875 204.564 131.11 204.402 129.637 204.224C127.921 204.029 126.374 203.803 124.998 203.544V184.891C124.998 183.806 125.265 182.867 125.8 182.073C126.334 181.264 127.046 180.576 127.937 180.009C128.827 179.442 129.847 178.981 130.997 178.624C132.163 178.252 133.369 177.969 134.616 177.774C135.863 177.564 137.101 177.418 138.332 177.337C139.579 177.256 140.736 177.216 141.805 177.216ZM130.924 189.214H152.734V186.397C152.734 185.733 152.573 185.166 152.249 184.696C151.925 184.211 151.488 183.806 150.937 183.482C150.403 183.158 149.771 182.899 149.043 182.705C148.33 182.494 147.585 182.34 146.808 182.243C146.031 182.13 145.246 182.057 144.452 182.025C143.675 181.992 142.938 181.976 142.242 181.976C141.514 181.976 140.728 181.992 139.886 182.025C139.061 182.057 138.227 182.13 137.385 182.243C136.543 182.357 135.733 182.519 134.956 182.729C134.179 182.923 133.491 183.191 132.892 183.531C132.292 183.854 131.815 184.259 131.459 184.745C131.102 185.215 130.924 185.781 130.924 186.445V189.214Z" fill="#97470B"/>
<path d="M97.3588 167.792C98.978 167.792 100.63 167.873 102.313 168.035C104.014 168.181 105.665 168.448 107.268 168.836C108.871 169.209 110.377 169.735 111.786 170.415C113.194 171.079 114.425 171.929 115.477 172.965C116.546 173.985 117.388 175.216 118.003 176.657C118.619 178.082 118.926 179.758 118.926 181.684C118.926 184.34 118.449 186.582 117.493 188.412C116.538 190.226 115.234 191.691 113.583 192.808C114.279 193.877 114.878 194.994 115.38 196.16C115.882 197.326 116.287 198.459 116.595 199.56C116.918 200.645 117.153 201.657 117.299 202.596C117.445 203.535 117.517 204.32 117.517 204.952H111.3C111.3 203.964 111.219 203.033 111.057 202.159C110.895 201.268 110.668 200.426 110.377 199.633C110.085 198.823 109.745 198.062 109.357 197.35C108.984 196.638 108.58 195.949 108.142 195.286C106.604 195.723 104.977 196.038 103.261 196.233C101.544 196.411 99.7552 196.5 97.8931 196.5C96.7759 196.5 95.6425 196.468 94.4929 196.403C93.3433 196.338 92.2098 196.257 91.0926 196.16V204.855H85.0693V169.201C85.4255 169.087 85.9922 168.95 86.7694 168.788C87.5628 168.626 88.4939 168.472 89.5625 168.326C90.6473 168.181 91.8536 168.059 93.1814 167.962C94.5091 167.849 95.9016 167.792 97.3588 167.792ZM99.1075 173.135C98.0389 173.135 97.0188 173.184 96.0473 173.281C95.0758 173.362 94.2257 173.459 93.4971 173.572C92.6227 173.702 91.8212 173.848 91.0926 174.01V190.622C91.6108 190.736 92.1856 190.833 92.817 190.914C93.3514 190.995 93.9747 191.068 94.6872 191.132C95.3996 191.181 96.1606 191.205 96.9702 191.205C98.0227 191.205 99.1318 191.181 100.298 191.132C101.48 191.068 102.645 190.93 103.795 190.719C104.961 190.509 106.062 190.201 107.098 189.797C108.151 189.376 109.074 188.825 109.867 188.145C110.676 187.449 111.316 186.591 111.786 185.57C112.271 184.55 112.514 183.32 112.514 181.879C112.514 180.681 112.32 179.628 111.931 178.721C111.543 177.815 111.017 177.037 110.353 176.39C109.689 175.742 108.912 175.208 108.021 174.787C107.147 174.366 106.208 174.034 105.204 173.791C104.216 173.548 103.196 173.378 102.143 173.281C101.107 173.184 100.095 173.135 99.1075 173.135Z" fill="#97470B"/>
<path d="M70.6425 194.994C70.2377 194.638 69.7358 194.29 69.1367 193.95C68.5376 193.61 67.8008 193.31 66.9265 193.051C66.0521 192.776 65.0078 192.557 63.7934 192.396C62.5952 192.217 61.1865 192.128 59.5674 192.128C58.1263 192.128 56.7581 192.161 55.4628 192.226C54.1836 192.274 53.0583 192.436 52.0868 192.711C51.1153 192.97 50.3462 193.391 49.7795 193.974C49.2128 194.557 48.9294 195.367 48.9294 196.403V199.512C50.3543 199.738 51.9249 199.925 53.6412 200.07C55.3575 200.216 57.2681 200.289 59.3731 200.289C61.057 200.289 62.8462 200.232 64.7406 200.119C66.6512 199.989 68.6185 199.738 70.6425 199.366V194.994ZM59.7131 177.216C60.5227 177.216 61.5023 177.256 62.6519 177.337C63.8015 177.418 64.9997 177.564 66.2464 177.774C67.4932 177.969 68.7238 178.244 69.9381 178.6C71.1687 178.94 72.2698 179.394 73.2413 179.96C74.229 180.511 75.0223 181.175 75.6214 181.952C76.2205 182.729 76.5201 183.644 76.5201 184.696V203.495C75.16 203.77 73.6218 204.005 71.9054 204.199C70.432 204.377 68.6752 204.539 66.635 204.685C64.5949 204.831 62.3199 204.904 59.8102 204.904C57.3167 204.904 54.6613 204.798 51.8439 204.588C49.0427 204.377 46.112 204.013 43.0518 203.495V194.751C43.0518 193.812 43.2704 192.995 43.7076 192.298C44.1609 191.586 44.7762 190.979 45.5534 190.477C46.3306 189.975 47.2455 189.562 48.2979 189.238C49.3504 188.914 50.4838 188.655 51.6982 188.461C52.9126 188.267 54.1755 188.137 55.487 188.072C56.7986 187.991 58.1101 187.951 59.4216 187.951C61.4132 187.951 63.1052 188.08 64.4977 188.34C65.9064 188.582 67.0722 188.85 67.9951 189.141C69.0638 189.497 69.9462 189.894 70.6425 190.331V186.397C70.6425 185.733 70.4806 185.166 70.1567 184.696C69.8329 184.211 69.3957 183.806 68.8452 183.482C68.2947 183.142 67.6632 182.875 66.9508 182.681C66.2383 182.47 65.4935 182.308 64.7163 182.195C63.9391 182.081 63.1457 182.009 62.3361 181.976C61.5427 181.944 60.7979 181.928 60.1017 181.928C59.3731 181.928 58.5959 181.952 57.7701 182C56.9443 182.033 56.1185 182.106 55.2927 182.219C54.4832 182.332 53.6979 182.494 52.9368 182.705C52.192 182.899 51.5282 183.166 50.9453 183.506C50.3624 183.846 49.8928 184.259 49.5366 184.745C49.1966 185.215 49.0266 185.781 49.0266 186.445L43.0032 184.891C43.0032 183.806 43.2704 182.867 43.8047 182.073C44.3391 181.264 45.0434 180.576 45.9177 180.009C46.8083 179.442 47.8284 178.981 48.978 178.624C50.1276 178.252 51.3177 177.969 52.5482 177.774C53.795 177.564 55.0337 177.418 56.2642 177.337C57.4948 177.256 58.6444 177.216 59.7131 177.216Z" fill="#FB7712"/>
<path d="M18.8614 167.258C21.3064 167.258 23.6218 167.476 25.8077 167.914C27.9935 168.335 29.8961 168.934 31.5152 169.711C33.1506 170.488 34.4459 171.419 35.4012 172.504C36.3566 173.573 36.8342 174.755 36.8342 176.05V180.325H30.4223V177.944C30.4223 177.248 30.1551 176.584 29.6208 175.953C29.0865 175.305 28.3174 174.746 27.3135 174.277C26.3258 173.791 25.1195 173.411 23.6946 173.135C22.2698 172.844 20.6587 172.698 18.8614 172.698C17.1289 172.698 15.5502 172.836 14.1253 173.111C12.7005 173.37 11.478 173.734 10.4579 174.204C9.43783 174.674 8.64444 175.232 8.07773 175.88C7.52721 176.511 7.25195 177.2 7.25195 177.944V195.091C7.25195 195.804 7.52721 196.476 8.07773 197.107C8.64444 197.739 9.43783 198.289 10.4579 198.759C11.478 199.212 12.7005 199.576 14.1253 199.852C15.5502 200.111 17.1289 200.24 18.8614 200.24C20.6587 200.24 22.2698 200.103 23.6946 199.827C25.1195 199.536 26.3258 199.155 27.3135 198.686C28.3174 198.216 29.0865 197.674 29.6208 197.059C30.1551 196.427 30.4223 195.771 30.4223 195.091V192.663H36.8342V196.937C36.8342 197.795 36.6156 198.613 36.1784 199.39C35.7413 200.151 35.126 200.856 34.3326 201.503C33.5554 202.151 32.6163 202.734 31.5152 203.252C30.4304 203.754 29.216 204.191 27.8721 204.564C26.5444 204.92 25.1195 205.195 23.5975 205.389C22.0755 205.584 20.4968 205.681 18.8614 205.681C17.226 205.681 15.6474 205.584 14.1253 205.389C12.6033 205.195 11.1703 204.92 9.82644 204.564C8.49872 204.191 7.28434 203.754 6.1833 203.252C5.09846 202.734 4.15934 202.151 3.36594 201.503C2.58874 200.856 1.98155 200.151 1.54438 199.39C1.1072 198.613 0.888611 197.795 0.888611 196.937V176.05C0.888611 175.192 1.1072 174.374 1.54438 173.597C1.98155 172.82 2.58874 172.107 3.36594 171.46C4.15934 170.812 5.09846 170.229 6.1833 169.711C7.28434 169.193 8.49872 168.756 9.82644 168.399C11.1703 168.027 12.6033 167.744 14.1253 167.549C15.6474 167.355 17.226 167.258 18.8614 167.258Z" fill="#FB7712"/>
</svg>
