<svg width="177" height="40" viewBox="0 0 177 40" fill="none" xmlns="http://www.w3.org/2000/svg">
<path d="M170.672 30.2737C171.255 30.2737 171.83 30.3223 172.396 30.4194C172.979 30.5166 173.497 30.6623 173.951 30.8566C174.404 31.0509 174.768 31.3019 175.044 31.6095C175.335 31.9171 175.481 32.2815 175.481 32.7024V36.2484C175.481 36.637 175.335 36.969 175.044 37.2442C174.768 37.5195 174.404 37.7462 173.951 37.9243C173.497 38.1024 172.979 38.2319 172.396 38.3129C171.83 38.3938 171.255 38.4343 170.672 38.4343C170.089 38.4343 169.514 38.3938 168.948 38.3129C168.381 38.2319 167.871 38.1024 167.417 37.9243C166.964 37.7462 166.6 37.5195 166.325 37.2442C166.049 36.969 165.912 36.637 165.912 36.2484V32.7024C165.912 32.2815 166.049 31.9171 166.325 31.6095C166.6 31.3019 166.964 31.0509 167.417 30.8566C167.871 30.6623 168.381 30.5166 168.948 30.4194C169.514 30.3223 170.089 30.2737 170.672 30.2737Z" fill="#97470B"/>
<path d="M141.138 10.7465C141.964 10.7465 142.96 10.7869 144.126 10.8679C145.291 10.9489 146.498 11.0946 147.745 11.3051C149.007 11.4994 150.254 11.7827 151.485 12.1551C152.715 12.5114 153.816 12.9728 154.788 13.5395C155.776 14.1062 156.569 14.7944 157.168 15.604C157.783 16.3974 158.091 17.3365 158.091 18.4213V26.6305H130.257V32.8481C132.217 33.1234 134.103 33.3177 135.916 33.431C137.73 33.5282 139.471 33.5768 141.138 33.5768C143.68 33.5768 145.98 33.4796 148.036 33.2853C150.109 33.091 151.898 32.8724 153.404 32.6296C155.136 32.3543 156.699 32.0386 158.091 31.6823V37.0742C155.015 37.5599 152.043 37.9081 149.177 38.1185C146.328 38.329 143.648 38.4343 141.138 38.4343C138.612 38.4343 136.321 38.3695 134.265 38.24C132.209 38.0943 130.444 37.9323 128.97 37.7542C127.254 37.5599 125.708 37.3332 124.331 37.0742V18.4213C124.331 17.3365 124.598 16.3974 125.133 15.604C125.667 14.7944 126.38 14.1062 127.27 13.5395C128.161 12.9728 129.181 12.5114 130.33 12.1551C131.496 11.7827 132.702 11.4994 133.949 11.3051C135.196 11.0946 136.435 10.9489 137.665 10.8679C138.912 10.7869 140.07 10.7465 141.138 10.7465ZM130.257 22.7445H152.068V19.9272C152.068 19.2633 151.906 18.6966 151.582 18.227C151.258 17.7413 150.821 17.3365 150.27 17.0127C149.736 16.6888 149.105 16.4298 148.376 16.2354C147.664 16.025 146.919 15.8711 146.142 15.774C145.364 15.6606 144.579 15.5878 143.786 15.5554C143.008 15.523 142.272 15.5068 141.575 15.5068C140.847 15.5068 140.062 15.523 139.22 15.5554C138.394 15.5878 137.56 15.6606 136.718 15.774C135.876 15.8873 135.066 16.0492 134.289 16.2597C133.512 16.454 132.824 16.7212 132.225 17.0612C131.626 17.3851 131.148 17.7899 130.792 18.2756C130.436 18.7452 130.257 19.3119 130.257 19.9757V22.7445Z" fill="#97470B"/>
<path d="M96.6921 1.32288C98.3113 1.32288 99.9628 1.40383 101.647 1.56575C103.347 1.71148 104.998 1.97864 106.601 2.36724C108.204 2.73965 109.71 3.26588 111.119 3.94593C112.528 4.60979 113.758 5.45986 114.811 6.49613C115.879 7.5162 116.721 8.74677 117.337 10.1878C117.952 11.6127 118.259 13.2885 118.259 15.2154C118.259 17.8708 117.782 20.1134 116.826 21.943C115.871 23.7565 114.568 25.2218 112.916 26.3391C113.612 27.4077 114.212 28.5249 114.713 29.6908C115.215 30.8566 115.62 31.99 115.928 33.091C116.252 34.1759 116.486 35.1878 116.632 36.127C116.778 37.0661 116.851 37.8514 116.851 38.4828H110.633C110.633 37.4952 110.552 36.5641 110.39 35.6898C110.228 34.7992 110.002 33.9573 109.71 33.1639C109.419 32.3543 109.079 31.5933 108.69 30.8808C108.318 30.1684 107.913 29.4803 107.476 28.8164C105.938 29.2536 104.31 29.5693 102.594 29.7636C100.878 29.9417 99.0885 30.0308 97.2264 30.0308C96.1092 30.0308 94.9758 29.9984 93.8262 29.9336C92.6766 29.8689 91.5431 29.7879 90.4259 29.6908V38.3857H84.4026V2.73155C84.7588 2.61821 85.3255 2.48058 86.1027 2.31867C86.8961 2.15675 87.8271 2.00293 88.8958 1.8572C89.9806 1.71148 91.1869 1.59004 92.5146 1.49289C93.8424 1.37955 95.2348 1.32288 96.6921 1.32288ZM98.4408 6.66614C97.3721 6.66614 96.3521 6.71472 95.3806 6.81187C94.4091 6.89282 93.559 6.98997 92.8304 7.10332C91.956 7.23285 91.1545 7.37858 90.4259 7.54049V24.1532C90.944 24.2665 91.5188 24.3637 92.1503 24.4446C92.6846 24.5256 93.308 24.5985 94.0205 24.6632C94.7329 24.7118 95.4939 24.7361 96.3035 24.7361C97.356 24.7361 98.4651 24.7118 99.6309 24.6632C100.813 24.5985 101.979 24.4608 103.128 24.2503C104.294 24.0398 105.395 23.7322 106.431 23.3274C107.484 22.9064 108.407 22.3559 109.2 21.6759C110.01 20.9796 110.649 20.1215 111.119 19.1014C111.605 18.0813 111.848 16.8507 111.848 15.4097C111.848 14.2115 111.653 13.159 111.265 12.2523C110.876 11.3455 110.35 10.5683 109.686 9.92067C109.022 9.27301 108.245 8.73868 107.354 8.31769C106.48 7.89671 105.541 7.56478 104.537 7.3219C103.549 7.07903 102.529 6.90902 101.477 6.81187C100.44 6.71472 99.4285 6.66614 98.4408 6.66614Z" fill="#97470B"/>
<path d="M69.9759 28.525C69.5711 28.1687 69.0692 27.8206 68.4701 27.4806C67.871 27.1406 67.1343 26.841 66.2599 26.582C65.3856 26.3067 64.3412 26.0881 63.1268 25.9262C61.9286 25.7481 60.52 25.659 58.9008 25.659C57.4597 25.659 56.0915 25.6914 54.7962 25.7562C53.517 25.8047 52.3917 25.9667 51.4202 26.2419C50.4487 26.501 49.6796 26.922 49.1129 27.5049C48.5462 28.0878 48.2628 28.8974 48.2628 29.9336V33.0424C49.6877 33.2691 51.2583 33.4553 52.9746 33.6011C54.6909 33.7468 56.6016 33.8196 58.7065 33.8196C60.3904 33.8196 62.1796 33.763 64.074 33.6496C65.9847 33.5201 67.952 33.2691 69.9759 32.8967V28.525ZM59.0465 10.7465C59.8561 10.7465 60.8357 10.7869 61.9853 10.8679C63.1349 10.9489 64.3331 11.0946 65.5799 11.3051C66.8266 11.4994 68.0572 11.7746 69.2716 12.1309C70.5022 12.4709 71.6032 12.9242 72.5747 13.491C73.5624 14.0415 74.3558 14.7053 74.9549 15.4825C75.554 16.2597 75.8535 17.1746 75.8535 18.227V37.0256C74.4934 37.3009 72.9552 37.5356 71.2389 37.7299C69.7654 37.9081 68.0086 38.07 65.9685 38.2157C63.9283 38.3614 61.6534 38.4343 59.1437 38.4343C56.6501 38.4343 53.9947 38.329 51.1773 38.1185C48.3762 37.9081 45.4455 37.5437 42.3852 37.0256V28.2821C42.3852 27.343 42.6038 26.5253 43.041 25.829C43.4944 25.1166 44.1097 24.5094 44.8869 24.0075C45.6641 23.5055 46.5789 23.0926 47.6314 22.7688C48.6838 22.445 49.8172 22.1859 51.0316 21.9916C52.246 21.7973 53.509 21.6678 54.8205 21.603C56.132 21.522 57.4435 21.4816 58.7551 21.4816C60.7466 21.4816 62.4387 21.6111 63.8312 21.8702C65.2398 22.113 66.4056 22.3802 67.3286 22.6717C68.3972 23.0279 69.2797 23.4246 69.9759 23.8617V19.9272C69.9759 19.2633 69.814 18.6966 69.4902 18.227C69.1663 17.7413 68.7292 17.3365 68.1786 17.0127C67.6281 16.6726 66.9966 16.4055 66.2842 16.2112C65.5718 16.0007 64.827 15.8388 64.0498 15.7254C63.2726 15.6121 62.4792 15.5392 61.6696 15.5068C60.8762 15.4744 60.1314 15.4582 59.4351 15.4582C58.7065 15.4582 57.9293 15.4825 57.1035 15.5311C56.2777 15.5635 55.452 15.6364 54.6262 15.7497C53.8166 15.863 53.0313 16.025 52.2703 16.2354C51.5255 16.4297 50.8616 16.6969 50.2787 17.0369C49.6958 17.377 49.2262 17.7899 48.87 18.2756C48.53 18.7452 48.36 19.3119 48.36 19.9757L42.3367 18.4213C42.3367 17.3365 42.6038 16.3974 43.1382 15.604C43.6725 14.7944 44.3768 14.1062 45.2512 13.5395C46.1417 12.9728 47.1618 12.5114 48.3114 12.1551C49.461 11.7827 50.6511 11.4994 51.8817 11.3051C53.1284 11.0946 54.3671 10.9489 55.5977 10.8679C56.8283 10.7869 57.9779 10.7465 59.0465 10.7465Z" fill="#FB7712"/>
<path d="M18.1947 0.788574C20.6397 0.788574 22.9551 1.00716 25.141 1.44434C27.3268 1.86532 29.2294 2.46442 30.8485 3.24162C32.4839 4.01882 33.7792 4.94984 34.7346 6.03469C35.6899 7.10334 36.1675 8.28534 36.1675 9.58067V13.8553H29.7556V11.4751C29.7556 10.7789 29.4884 10.115 28.9541 9.48352C28.4198 8.83585 27.6507 8.27724 26.6468 7.80768C25.6591 7.32193 24.4528 6.94142 23.0279 6.66616C21.6031 6.37471 19.992 6.22899 18.1947 6.22899C16.4622 6.22899 14.8835 6.36662 13.4586 6.64188C12.0338 6.90094 10.8113 7.26526 9.79123 7.73482C8.77115 8.20438 7.97775 8.76299 7.41104 9.41066C6.86053 10.0421 6.58527 10.7303 6.58527 11.4751V28.6221C6.58527 29.3346 6.86053 30.0065 7.41104 30.638C7.97775 31.2695 8.77115 31.82 9.79123 32.2895C10.8113 32.7429 12.0338 33.1072 13.4586 33.3825C14.8835 33.6416 16.4622 33.7711 18.1947 33.7711C19.992 33.7711 21.6031 33.6335 23.0279 33.3582C24.4528 33.0667 25.6591 32.6862 26.6468 32.2167C27.6507 31.7471 28.4198 31.2047 28.9541 30.5894C29.4884 29.9579 29.7556 29.3022 29.7556 28.6221V26.1934H36.1675V30.468C36.1675 31.3261 35.9489 32.1438 35.5118 32.921C35.0746 33.682 34.4593 34.3864 33.6659 35.034C32.8887 35.6817 31.9496 36.2646 30.8485 36.7827C29.7637 37.2847 28.5493 37.7219 27.2054 38.0943C25.8777 38.4505 24.4528 38.7258 22.9308 38.9201C21.4088 39.1144 19.8301 39.2115 18.1947 39.2115C16.5594 39.2115 14.9807 39.1144 13.4586 38.9201C11.9366 38.7258 10.5037 38.4505 9.15975 38.0943C7.83203 37.7219 6.61765 37.2847 5.51661 36.7827C4.43177 36.2646 3.49265 35.6817 2.69926 35.034C1.92205 34.3864 1.31486 33.682 0.877688 32.921C0.440512 32.1438 0.221924 31.3261 0.221924 30.468V9.58067C0.221924 8.72251 0.440512 7.90483 0.877688 7.12763C1.31486 6.35043 1.92205 5.63799 2.69926 4.99032C3.49265 4.34265 4.43177 3.75975 5.51661 3.24162C6.61765 2.72348 7.83203 2.28631 9.15975 1.93009C10.5037 1.55768 11.9366 1.27433 13.4586 1.08002C14.9807 0.885724 16.5594 0.788574 18.1947 0.788574Z" fill="#FB7712"/>
</svg>
