<svg width="52" height="60" viewBox="0 0 52 60" fill="none" xmlns="http://www.w3.org/2000/svg">
    <path d="M0.661512 34.9446C2.02576 40.1616 5.40658 44.623 10.0602 47.3473C14.7139 50.0716 20.2592 50.8357 25.4762 49.4715C30.6932 48.1072 35.1546 44.7264 37.8789 40.0727C40.6032 35.4191 41.3673 29.8738 40.0031 24.6568L20.3323 29.8007L0.661512 34.9446Z" fill="#FB7712"/>
    <path d="M39.5121 42.3785C41.2947 43.0743 43.2807 43.0334 45.0332 42.2649C46.7857 41.4964 48.1611 40.0632 48.8569 38.2805C49.5527 36.4979 49.5118 34.5119 48.7433 32.7594C47.9748 31.0069 46.5416 29.6315 44.7589 28.9357L42.1355 35.6571L39.5121 42.3785Z" fill="#FB7712"/>
    <path d="M47.4419 56.2624C47.4419 58.3266 36.8216 60 23.7209 60C10.6202 60 0 58.3266 0 56.2624C0 54.1983 10.6202 52.5249 23.7209 52.5249C36.8216 52.5249 47.4419 54.1983 47.4419 56.2624Z" fill="#97470B"/>
    <path d="M17.1239 14.456C13.4903 10.7254 10.6645 5.33223 19.6844 0C13.5051 3.68771 17.1239 8.86529 19.6844 11.9103C22.6057 15.3843 24.4961 19.8223 16.2526 25.5183C15.8835 25.8311 15.4816 26.0991 15.0499 26.3123C15.4728 26.045 15.8734 25.7803 16.2526 25.5183C19.2484 22.9789 20.0775 17.4885 17.1239 14.456Z" fill="#FDC9A0"/>
    <path d="M27.5124 16.0624C25.2578 13.6823 23.5043 10.2414 29.1013 6.83936C25.2669 9.19216 27.5124 12.4955 29.1013 14.4383C30.914 16.6547 32.087 19.4862 26.9718 23.1204C26.7428 23.3199 26.4934 23.4909 26.2255 23.6269C26.4879 23.4564 26.7365 23.2875 26.9718 23.1204C28.8308 21.5002 29.3452 17.9972 27.5124 16.0624Z" fill="#FDC9A0"/>
    <path d="M8.05336 21.3474C5.66605 18.9673 3.80948 15.5264 9.7357 12.1243C5.67575 14.4771 8.05336 17.7805 9.7357 19.7232C11.655 21.9397 12.897 24.7712 7.48091 28.4053C7.23845 28.6049 6.9744 28.7759 6.69073 28.9119C6.9686 28.7413 7.2318 28.5725 7.48091 28.4053C9.44923 26.7851 9.99396 23.2822 8.05336 21.3474Z" fill="#FDC9A0"/>
    </svg>
    